<svg xmlns="http://www.w3.org/2000/svg" width="32" height="32" viewBox="0 0 32 32">
  <defs>
    <linearGradient id="gradient" x1="0%" y1="0%" x2="100%" y2="100%">
      <stop offset="0%" style="stop-color:#4682B4;stop-opacity:1" />
      <stop offset="100%" style="stop-color:#90EE90;stop-opacity:1" />
    </linearGradient>
  </defs>
  <circle cx="16" cy="16" r="14" fill="url(#gradient)" stroke="#fff" stroke-width="2"/>
  <path d="M10 14c0-1 1-2 2-2s2 1 2 2-1 2-2 2-2-1-2-2zm8 0c0-1 1-2 2-2s2 1 2 2-1 2-2 2-2-1-2-2z" fill="#fff"/>
  <path d="M8 20c2 4 6 4 8 4s6 0 8-4" stroke="#fff" stroke-width="2" fill="none" stroke-linecap="round"/>
</svg>