<svg xmlns="http://www.w3.org/2000/svg" width="192" height="192" viewBox="0 0 192 192">
  <defs>
    <linearGradient id="gradient192" x1="0%" y1="0%" x2="100%" y2="100%">
      <stop offset="0%" style="stop-color:#4682B4;stop-opacity:1" />
      <stop offset="50%" style="stop-color:#90EE90;stop-opacity:1" />
      <stop offset="100%" style="stop-color:#9370DB;stop-opacity:1" />
    </linearGradient>
  </defs>
  <rect width="192" height="192" rx="32" fill="url(#gradient192)"/>
  <circle cx="96" cy="96" r="70" fill="rgba(255,255,255,0.1)" stroke="rgba(255,255,255,0.3)" stroke-width="2"/>
  
  <!-- Heart/Wellness Symbol -->
  <path d="M96 140c-20-15-40-35-40-55 0-15 10-25 25-25 8 0 15 4 15 10 0-6 7-10 15-10 15 0 25 10 25 25 0 20-20 40-40 55z" fill="#fff" opacity="0.9"/>
  
  <!-- Sparkle effects -->
  <circle cx="70" cy="70" r="3" fill="#fff" opacity="0.8"/>
  <circle cx="122" cy="70" r="2" fill="#fff" opacity="0.6"/>
  <circle cx="70" cy="122" r="2" fill="#fff" opacity="0.7"/>
  <circle cx="122" cy="122" r="3" fill="#fff" opacity="0.8"/>
  
  <!-- Mind Care Live text -->
  <text x="96" y="170" text-anchor="middle" fill="#fff" font-family="Arial, sans-serif" font-size="14" font-weight="bold" opacity="0.9">Mind Care</text>
</svg>